<svg width="26" height="26" viewBox="0 0 26 26" fill="none" xmlns="http://www.w3.org/2000/svg">
<path d="M18.3148 7.78187C18.32 7.78187 18.3269 7.78187 18.3338 7.78187C18.5142 7.78187 18.6817 7.83798 18.8189 7.93466L18.8163 7.93294C18.9165 8.02012 18.9838 8.1427 19.0002 8.28081V8.2834C19.0175 8.38871 19.027 8.50956 19.027 8.633C19.027 8.68911 19.0252 8.74436 19.0209 8.7996V8.79183C18.8267 10.8368 17.9842 15.7959 17.556 18.0852C17.3748 19.0546 17.0183 19.3791 16.673 19.4102C15.9228 19.4801 15.3531 18.9147 14.6263 18.4382C13.4886 17.6916 12.8455 17.2272 11.7414 16.4995C10.4647 15.6596 11.2926 15.196 12.0194 14.4416C12.2102 14.243 15.5171 11.2347 15.5819 10.962C15.5853 10.9456 15.5871 10.9274 15.5871 10.9084C15.5871 10.8411 15.562 10.7798 15.5214 10.7332C15.4766 10.7039 15.4205 10.6875 15.3618 10.6875C15.3229 10.6875 15.2858 10.6952 15.2513 10.7082L15.253 10.7073C15.139 10.7332 13.3217 11.9342 9.80093 14.3104C9.4168 14.6133 8.93167 14.805 8.40339 14.8274H8.39821C7.6498 14.7368 6.97045 14.5702 6.32563 14.3328L6.38951 14.3535C5.57981 14.0894 4.93672 13.9504 4.99197 13.5033C5.02132 13.2708 5.34186 13.0328 5.95359 12.7894C9.7218 11.1475 12.2346 10.0654 13.492 9.54283C14.8792 8.80651 16.4874 8.20053 18.1784 7.80777L18.3139 7.78101L18.3148 7.78187ZM12.9698 0C5.80339 0.0172643 0 5.83101 0 13C0 20.1793 5.81979 26 13 26C20.1802 26 26 20.1802 26 13C26 5.83101 20.1966 0.0172643 13.0319 0H13.0302C13.0101 0 12.9899 0 12.9698 0Z" fill="#40B3E0"/>
</svg>
