<svg width="13" height="13" viewBox="0 0 13 13" fill="none" xmlns="http://www.w3.org/2000/svg">
    <path d="M6.1757 9.8369L10.1818 5.83078C9.63657 5.60388 8.9908 5.23111 8.38007 4.62037C7.76923 4.00953 7.3964 3.36364 7.1695 2.81836L3.16334 6.82453C2.85073 7.13718 2.6944 7.2935 2.55997 7.46581C2.40139 7.66915 2.26543 7.88912 2.1545 8.12187C2.06046 8.3192 1.99056 8.52893 1.85075 8.94835L1.11348 11.1602C1.04468 11.3666 1.09839 11.5941 1.25224 11.748C1.40609 11.9018 1.63366 11.9556 1.84006 11.8868L4.05187 11.1495C4.4713 11.0097 4.68103 10.9398 4.87835 10.8458C5.11111 10.7348 5.33109 10.5989 5.53443 10.4403C5.70673 10.3058 5.86311 10.1495 6.1757 9.8369Z" fill="#D30D15"/>
    <path d="M11.2926 4.72023C12.1245 3.88838 12.1245 2.5397 11.2926 1.70787C10.4608 0.876024 9.1121 0.876024 8.28026 1.70787L7.7998 2.18835C7.80641 2.20821 7.81318 2.22835 7.82028 2.24876C7.99638 2.75638 8.32869 3.42182 8.95377 4.04691C9.57885 4.672 10.2443 5.00429 10.7519 5.1804C10.7723 5.18745 10.7923 5.19424 10.8121 5.20079L11.2926 4.72023Z" fill="#D30D15"/>
</svg> 